PathFileType	4	(X/Y/Z)	C:\Users\86182\Documents\cortex\Trimmed_M1_H9.trc
DataRate	CameraRate	NumFrames	NumMarkers	Units	OrigDataRate	OrigDataStartFrame	OrigNumFrames
100.00	100.00	       144	2	mm	100.00	1	       901
Frame#	Time	gripper			box			
		X1	Y1	Z1	X2	Y2	Z2	

1	0.000	224.99445	204.36366	183.95395	233.75256	203.05649	43.75264	
2	0.010	224.99445	204.36366	183.95395	233.75198	203.05664	43.75080	
3	0.020	224.99445	204.36366	183.95395	233.75067	203.05635	43.74975	
4	0.030	224.99445	204.36366	183.95395	233.74858	203.05553	43.75005	
5	0.040	224.99445	204.36366	183.95395	233.74593	203.05429	43.75135	
6	0.050	224.99445	204.36366	183.95395	233.74318	203.05301	43.75278	
7	0.060	224.99445	204.36366	183.95395	233.74101	203.05209	43.75329	
8	0.070	224.99445	204.36366	183.95395	233.73991	203.05188	43.75237	
9	0.080	224.99445	204.36366	183.95395	233.73988	203.05226	43.75034	
10	0.090	224.99445	204.36366	183.95395	233.74066	203.05301	43.74791	
11	0.100	224.99445	204.36366	183.95395	233.74211	203.05402	43.74549	
12	0.110	224.99445	204.36366	183.95395	233.74426	203.05527	43.74316	
13	0.120	224.99445	204.36366	183.95395	233.74715	203.05675	43.74098	
14	0.130	224.99445	204.36366	183.95395	233.75066	203.05840	43.73916	
15	0.140	224.99445	204.36366	183.95395	233.75439	203.05995	43.73825	
16	0.150	224.99445	204.36366	183.95395	233.75783	203.06111	43.73881	
17	0.160	224.99445	204.36366	183.95395	233.76056	203.06169	43.74103	
18	0.170	224.99445	204.36366	183.95395	233.76251	203.06172	43.74462	
19	0.180	224.99445	204.36366	183.95395	233.76367	203.06133	43.74885	
20	0.190	224.99445	204.36366	183.95395	233.76404	203.06070	43.75280	
21	0.200	224.99445	204.36366	183.95395	233.76401	203.06015	43.75557	
22	0.210	224.99445	204.36366	183.95395	233.76419	203.06006	43.75644	
23	0.220	224.99445	204.36366	183.95395	233.76485	203.06055	43.75516	
24	0.230	224.99445	204.36366	183.95395	233.76549	203.06136	43.75222	
25	0.240	224.99445	204.36366	183.95395	233.76556	203.06204	43.74876	
26	0.250	224.99445	204.36366	183.95395	233.76468	203.06226	43.74596	
27	0.260	224.99445	204.36366	183.95395	233.76283	203.06186	43.74456	
28	0.270	224.99445	204.36366	183.95395	233.76065	203.06102	43.74470	
29	0.280	224.99445	204.36366	183.95395	233.75900	203.06017	43.74593	
30	0.290	224.99445	204.36366	183.95395	233.75819	203.05954	43.74770	
31	0.300	224.99445	204.36366	183.95395	233.75778	203.05902	43.74956	
32	0.310	224.99445	204.36366	183.95395	233.75700	203.05841	43.75121	
33	0.320	224.99445	204.36366	183.95395	233.75543	203.05759	43.75249	
34	0.330	224.99445	204.36366	183.95395	233.75317	203.05659	43.75330	
35	0.340	224.99445	204.36366	183.95395	233.75052	203.05553	43.75375	
36	0.350	224.99445	204.36366	183.95395	233.74777	203.05440	43.75437	
37	0.360	224.99445	204.36366	183.95395	233.74510	203.05313	43.75579	
38	0.370	224.99445	204.36366	183.95395	233.74255	203.05173	43.75817	
39	0.380	224.99445	204.36366	183.95395	233.74014	203.05026	43.76116	
40	0.390	224.99445	204.36366	183.95395	233.73796	203.04886	43.76421	
41	0.400	224.99445	204.36366	183.95395	233.73616	203.04767	43.76693	
42	0.410	224.99445	204.36366	183.95395	233.73521	203.04695	43.76884	
43	0.420	224.99445	204.36366	183.95395	233.73573	203.04706	43.76926	
44	0.430	224.99445	204.36366	183.95395	233.73810	203.04825	43.76760	
45	0.440	224.99445	204.36366	183.95395	233.74213	203.05045	43.76397	
46	0.450	224.99445	204.36366	183.95395	233.74722	203.05325	43.75916	
47	0.460	224.99445	204.36366	183.95395	233.75269	203.05618	43.75444	
48	0.470	224.99445	204.36366	183.95395	233.75803	203.05884	43.75095	
49	0.480	224.99445	204.36366	183.95395	233.76289	203.06097	43.74923	
50	0.490	224.99445	204.36366	183.95395	233.76680	203.06242	43.74916	
51	0.500	224.99445	204.36366	183.95395	233.76892	203.06297	43.75035	
52	0.510	224.99445	204.36366	183.95395	233.76854	203.06245	43.75234	
53	0.520	224.99445	204.36366	183.95395	233.76570	203.06094	43.75472	
54	0.530	224.99445	204.36366	183.95395	233.76144	203.05890	43.75720	
55	0.540	224.99445	204.36366	183.95395	233.75729	203.05690	43.75959	
56	0.550	224.99445	204.36366	183.95395	233.75429	203.05537	43.76167	
57	0.560	224.99445	204.36366	183.95395	233.75246	203.05440	43.76326	
58	0.570	224.99445	204.36366	183.95395	233.75128	203.05380	43.76409	
59	0.580	224.99445	204.36366	183.95395	233.75053	203.05356	43.76392	
60	0.590	224.99445	204.36366	183.95395	233.75061	203.05383	43.76262	
61	0.600	224.99445	204.36366	183.95395	233.75189	203.05475	43.76038	
62	0.610	225.00285	204.36208	183.94861	233.75404	203.05608	43.75765	
63	0.620	224.99445	204.36366	183.95395	233.75629	203.05739	43.75512	
64	0.630	224.99445	204.36366	183.95395	233.75789	203.05832	43.75337	
65	0.640	224.99445	204.36366	183.95395	233.75842	203.05867	43.75257	
66	0.650	224.99445	204.36366	183.95395	233.75772	203.05844	43.75245	
67	0.660	224.99445	204.36366	183.95395	233.75584	203.05771	43.75260	
68	0.670	224.99445	204.36366	183.95395	233.75316	203.05670	43.75270	
69	0.680	224.99445	204.36366	183.95395	233.75037	203.05574	43.75232	
70	0.690	224.99445	204.36366	183.95395	233.74818	203.05521	43.75098	
71	0.700	224.99445	204.36366	183.95395	233.74699	203.05524	43.74855	
72	0.710	224.99445	204.36366	183.95395	233.74670	203.05573	43.74544	
73	0.720	224.99445	204.36366	183.95395	233.74698	203.05641	43.74240	
74	0.730	224.99445	204.36366	183.95395	233.74731	203.05698	43.74020	
75	0.740	224.99445	204.36366	183.95395	233.74739	203.05717	43.73926	
76	0.750	224.99445	204.36366	183.95395	233.74706	203.05701	43.73953	
77	0.760	224.99445	204.36366	183.95395	233.74643	203.05652	43.74083	
78	0.770	224.99445	204.36366	183.95395	233.74574	203.05588	43.74284	
79	0.780	224.99445	204.36366	183.95395	233.74522	203.05525	43.74509	
80	0.790	224.99445	204.36366	183.95395	233.74501	203.05476	43.74720	
81	0.800	224.99445	204.36366	183.95395	233.74513	203.05450	43.74878	
82	0.810	224.99445	204.36366	183.95395	233.74562	203.05452	43.74957	
83	0.820	224.99445	204.36366	183.95395	233.74634	203.05478	43.74963	
84	0.830	224.99445	204.36366	183.95395	233.74713	203.05516	43.74919	
85	0.840	224.99445	204.36366	183.95395	233.74803	203.05565	43.74833	
86	0.850	224.99445	204.36366	183.95395	233.74887	203.05618	43.74721	
87	0.860	224.99445	204.36366	183.95395	233.74930	203.05652	43.74623	
88	0.870	224.99445	204.36366	183.95395	233.74908	203.05653	43.74576	
89	0.880	224.99445	204.36366	183.95395	233.74847	203.05629	43.74588	
90	0.890	224.99445	204.36366	183.95395	233.74789	203.05597	43.74641	
91	0.900	224.99445	204.36366	183.95395	233.74748	203.05563	43.74733	
92	0.910	224.99445	204.36366	183.95395	233.74690	203.05513	43.74892	
93	0.920	224.99445	204.36366	183.95395	233.74577	203.05423	43.75146	
94	0.930	224.99445	204.36366	183.95395	233.74380	203.05283	43.75511	
95	0.940	224.99445	204.36366	183.95395	233.74089	203.05089	43.75968	
96	0.950	224.99445	204.36366	183.95395	233.73732	203.04871	43.76440	
97	0.960	224.99445	204.36366	183.95395	233.73402	203.04683	43.76801	
98	0.970	224.99445	204.36366	183.95395	233.73190	203.04579	43.76953	
99	0.980	224.99445	204.36366	183.95395	233.73125	203.04564	43.76906	
100	0.990	224.99445	204.36366	183.95395	233.73170	203.04601	43.76778	
101	1.000	224.95703	204.37048	183.97597	233.73265	203.04631	43.76726	
102	1.010	224.88297	204.38397	184.01949	233.73351	203.04605	43.76883	
103	1.020	224.74561	204.41660	184.15820	233.73401	203.04497	43.77305	
104	1.030	224.76106	204.41727	184.17558	233.73413	203.04311	43.77959	
105	1.040	224.66925	204.35928	184.28299	233.73389	203.04066	43.78745	
106	1.050	224.66925	204.35928	184.28299	233.73300	203.03793	43.79523	
107	1.060	224.63213	204.33052	184.43665	233.73062	203.03513	43.80132	
108	1.070	224.63213	204.33052	184.43665	233.72534	203.03246	43.80373	
109	1.080	224.60175	204.26128	184.63158	233.71513	203.03020	43.80018	
110	1.090	224.63911	204.32526	184.81630	233.69754	203.02864	43.78835	
111	1.100	225.02272	204.27745	184.85921	233.67004	203.02805	43.76657	
112	1.110	225.11479	204.28041	185.13203	233.63089	203.02859	43.73482	
113	1.120	224.72256	204.30132	185.57260	233.58046	203.03046	43.69559	
114	1.130	224.84990	204.22786	185.77849	233.52242	203.03395	43.65380	
115	1.140	225.09735	204.22157	186.00438	233.46317	203.03990	43.61516	
116	1.150	224.70171	204.31810	186.45934	233.40903	203.04958	43.58467	
117	1.160	224.85289	204.34654	186.77487	233.36388	203.06390	43.56659	
118	1.170	224.73975	204.28601	187.18031	233.32890	203.08247	43.56533	
119	1.180	224.78485	204.20117	187.40436	233.30472	203.10289	43.58538	
120	1.190	224.72992	204.24898	187.77571	233.29446	203.12161	43.62919	
121	1.200	224.95129	204.37138	188.29250	233.30406	203.13559	43.69590	
122	1.210	224.94064	204.33188	188.77962	233.33771	203.14349	43.78271	
123	1.220	224.81241	204.25101	189.19661	233.39352	203.14586	43.88549	
124	1.230	224.63818	204.32664	189.52762	233.46268	203.14488	43.99752	
125	1.240	224.68539	204.37303	190.16991	233.62029	203.21892	44.23711	
126	1.250	224.77699	204.33998	190.63324	233.68404	203.30258	44.60065	
127	1.260	224.74834	204.35172	191.06636	233.52272	203.32562	45.02768	
128	1.270	224.95500	204.46431	191.66695	233.40775	203.34756	45.42245	
129	1.280	224.96660	204.37912	192.01437	233.34283	203.36804	45.77936	
130	1.290	224.67004	204.40463	192.42810	233.31108	203.38745	46.10690	
131	1.300	224.63707	204.40837	192.87585	233.29391	203.40616	46.41670	
132	1.310	225.18668	204.43558	193.33876	232.97853	203.45372	46.96436	
133	1.320	224.71086	204.44336	193.95776	232.62202	203.50287	47.49995	
134	1.330	224.95204	204.37694	194.04135	232.50449	203.52512	47.77368	
135	1.340	224.73610	204.42691	194.58080	232.40628	203.54549	48.03872	
136	1.350	224.96805	204.44301	194.93245	232.33878	203.56145	48.29563	
137	1.360	224.83203	204.51773	195.51559	232.31000	203.56952	48.54692	
138	1.370	224.96347	204.45810	195.75063	232.31889	203.56775	48.79785	
139	1.380	225.28125	204.45692	196.24225	232.35352	203.55708	49.05367	
140	1.390	225.07840	204.42815	196.72690	232.39908	203.54086	49.31527	
141	1.400	225.13663	204.44916	197.06155	232.73119	203.52750	49.68834	
142	1.410	224.76596	204.44757	197.47054	232.97763	203.53038	50.15294	
143	1.420	225.40228	204.39211	198.07791	232.81067	203.55443	50.64612	
144	1.430	225.29724	204.54523	198.51729	232.67615	203.57637	51.11811	
